<mxfile host="app.diagrams.net" modified="2024-03-18T02:12:49.511Z" agent="Mozilla/5.0 (Windows NT 10.0; Win64; x64) AppleWebKit/537.36 (KHTML, like Gecko) Chrome/122.0.0.0 Safari/537.36" etag="yNkYovYm2M8Y1uTp-ktY" version="24.0.7" type="github">
  <diagram id="R2lEEEUBdFMjLlhIrx00" name="Page-1">
    <mxGraphModel dx="1114" dy="648" grid="1" gridSize="10" guides="1" tooltips="1" connect="1" arrows="1" fold="1" page="1" pageScale="1" pageWidth="850" pageHeight="1100" math="0" shadow="0" extFonts="Permanent Marker^https://fonts.googleapis.com/css?family=Permanent+Marker">
      <root>
        <mxCell id="0" />
        <mxCell id="1" parent="0" />
        <mxCell id="fPkrauzJQWh0N8piWwbz-104" value="LIVRO" style="whiteSpace=wrap;html=1;align=center;" vertex="1" parent="1">
          <mxGeometry x="180" y="150" width="100" height="40" as="geometry" />
        </mxCell>
        <mxCell id="fPkrauzJQWh0N8piWwbz-105" value="AUTOR" style="whiteSpace=wrap;html=1;align=center;" vertex="1" parent="1">
          <mxGeometry x="550" y="150" width="100" height="40" as="geometry" />
        </mxCell>
        <mxCell id="fPkrauzJQWh0N8piWwbz-108" value="ESCRITO" style="shape=rhombus;perimeter=rhombusPerimeter;whiteSpace=wrap;html=1;align=center;" vertex="1" parent="1">
          <mxGeometry x="350" y="140" width="120" height="60" as="geometry" />
        </mxCell>
        <mxCell id="fPkrauzJQWh0N8piWwbz-116" value="LEITOR" style="whiteSpace=wrap;html=1;align=center;" vertex="1" parent="1">
          <mxGeometry x="520" y="430" width="100" height="40" as="geometry" />
        </mxCell>
        <mxCell id="fPkrauzJQWh0N8piWwbz-117" value="&lt;span style=&quot;border-bottom: 1px dotted&quot;&gt;isbn&lt;/span&gt;" style="ellipse;whiteSpace=wrap;html=1;align=center;" vertex="1" parent="1">
          <mxGeometry x="10" y="240" width="100" height="40" as="geometry" />
        </mxCell>
        <mxCell id="fPkrauzJQWh0N8piWwbz-118" value="título" style="ellipse;whiteSpace=wrap;html=1;align=center;" vertex="1" parent="1">
          <mxGeometry x="10" y="170" width="100" height="40" as="geometry" />
        </mxCell>
        <mxCell id="fPkrauzJQWh0N8piWwbz-121" value="ano publicação" style="ellipse;whiteSpace=wrap;html=1;align=center;" vertex="1" parent="1">
          <mxGeometry x="10" y="110" width="100" height="40" as="geometry" />
        </mxCell>
        <mxCell id="fPkrauzJQWh0N8piWwbz-122" value="gênero" style="ellipse;whiteSpace=wrap;html=1;align=center;" vertex="1" parent="1">
          <mxGeometry x="10" y="50" width="100" height="40" as="geometry" />
        </mxCell>
        <mxCell id="fPkrauzJQWh0N8piWwbz-125" value="" style="endArrow=none;html=1;rounded=0;" edge="1" parent="1">
          <mxGeometry relative="1" as="geometry">
            <mxPoint x="110" y="190" as="sourcePoint" />
            <mxPoint x="180" y="170" as="targetPoint" />
          </mxGeometry>
        </mxCell>
        <mxCell id="fPkrauzJQWh0N8piWwbz-132" value="" style="endArrow=none;html=1;rounded=0;entryX=0;entryY=0.5;entryDx=0;entryDy=0;" edge="1" parent="1" target="fPkrauzJQWh0N8piWwbz-104">
          <mxGeometry relative="1" as="geometry">
            <mxPoint x="110" y="129.5" as="sourcePoint" />
            <mxPoint x="270" y="129.5" as="targetPoint" />
          </mxGeometry>
        </mxCell>
        <mxCell id="fPkrauzJQWh0N8piWwbz-133" value="" style="endArrow=none;html=1;rounded=0;entryX=0;entryY=0.5;entryDx=0;entryDy=0;" edge="1" parent="1" target="fPkrauzJQWh0N8piWwbz-104">
          <mxGeometry relative="1" as="geometry">
            <mxPoint x="110" y="69.5" as="sourcePoint" />
            <mxPoint x="270" y="69.5" as="targetPoint" />
          </mxGeometry>
        </mxCell>
        <mxCell id="fPkrauzJQWh0N8piWwbz-138" value="" style="endArrow=none;html=1;rounded=0;entryX=0;entryY=0.5;entryDx=0;entryDy=0;" edge="1" parent="1" target="fPkrauzJQWh0N8piWwbz-104">
          <mxGeometry relative="1" as="geometry">
            <mxPoint x="110" y="259.5" as="sourcePoint" />
            <mxPoint x="270" y="259.5" as="targetPoint" />
          </mxGeometry>
        </mxCell>
        <mxCell id="fPkrauzJQWh0N8piWwbz-139" value="&lt;span style=&quot;border-bottom: 1px dotted&quot;&gt;id autor&lt;/span&gt;" style="ellipse;whiteSpace=wrap;html=1;align=center;" vertex="1" parent="1">
          <mxGeometry x="750" y="80" width="100" height="40" as="geometry" />
        </mxCell>
        <mxCell id="fPkrauzJQWh0N8piWwbz-140" value="nome" style="ellipse;whiteSpace=wrap;html=1;align=center;" vertex="1" parent="1">
          <mxGeometry x="750" y="150" width="100" height="40" as="geometry" />
        </mxCell>
        <mxCell id="fPkrauzJQWh0N8piWwbz-141" value="nacionalidade" style="ellipse;whiteSpace=wrap;html=1;align=center;" vertex="1" parent="1">
          <mxGeometry x="750" y="220" width="100" height="40" as="geometry" />
        </mxCell>
        <mxCell id="fPkrauzJQWh0N8piWwbz-142" value="" style="endArrow=none;html=1;rounded=0;exitX=1;exitY=0.5;exitDx=0;exitDy=0;" edge="1" parent="1" source="fPkrauzJQWh0N8piWwbz-105">
          <mxGeometry relative="1" as="geometry">
            <mxPoint x="590" y="99.5" as="sourcePoint" />
            <mxPoint x="750" y="99.5" as="targetPoint" />
          </mxGeometry>
        </mxCell>
        <mxCell id="fPkrauzJQWh0N8piWwbz-143" value="" style="endArrow=none;html=1;rounded=0;exitX=1;exitY=0.5;exitDx=0;exitDy=0;" edge="1" parent="1" source="fPkrauzJQWh0N8piWwbz-105">
          <mxGeometry relative="1" as="geometry">
            <mxPoint x="700" y="170" as="sourcePoint" />
            <mxPoint x="750" y="170" as="targetPoint" />
          </mxGeometry>
        </mxCell>
        <mxCell id="fPkrauzJQWh0N8piWwbz-145" value="" style="endArrow=none;html=1;rounded=0;exitX=1;exitY=0.5;exitDx=0;exitDy=0;" edge="1" parent="1" source="fPkrauzJQWh0N8piWwbz-105">
          <mxGeometry relative="1" as="geometry">
            <mxPoint x="590" y="239.5" as="sourcePoint" />
            <mxPoint x="750" y="239.5" as="targetPoint" />
          </mxGeometry>
        </mxCell>
        <mxCell id="fPkrauzJQWh0N8piWwbz-146" value="id leitor" style="ellipse;whiteSpace=wrap;html=1;align=center;fontStyle=4;" vertex="1" parent="1">
          <mxGeometry x="740" y="300" width="100" height="40" as="geometry" />
        </mxCell>
        <mxCell id="fPkrauzJQWh0N8piWwbz-147" value="nome" style="ellipse;whiteSpace=wrap;html=1;align=center;" vertex="1" parent="1">
          <mxGeometry x="740" y="350" width="100" height="40" as="geometry" />
        </mxCell>
        <mxCell id="fPkrauzJQWh0N8piWwbz-148" value="documento" style="ellipse;whiteSpace=wrap;html=1;align=center;" vertex="1" parent="1">
          <mxGeometry x="740" y="400" width="100" height="40" as="geometry" />
        </mxCell>
        <mxCell id="fPkrauzJQWh0N8piWwbz-150" value="id emprestimo" style="ellipse;whiteSpace=wrap;html=1;align=center;fontStyle=4;" vertex="1" parent="1">
          <mxGeometry x="740" y="450" width="100" height="40" as="geometry" />
        </mxCell>
        <mxCell id="fPkrauzJQWh0N8piWwbz-151" value="data empréstimo" style="ellipse;whiteSpace=wrap;html=1;align=center;" vertex="1" parent="1">
          <mxGeometry x="740" y="500" width="100" height="40" as="geometry" />
        </mxCell>
        <mxCell id="fPkrauzJQWh0N8piWwbz-152" value="data devolução" style="ellipse;whiteSpace=wrap;html=1;align=center;" vertex="1" parent="1">
          <mxGeometry x="740" y="550" width="100" height="40" as="geometry" />
        </mxCell>
        <mxCell id="fPkrauzJQWh0N8piWwbz-153" value="multa" style="ellipse;whiteSpace=wrap;html=1;align=center;" vertex="1" parent="1">
          <mxGeometry x="740" y="600" width="100" height="40" as="geometry" />
        </mxCell>
        <mxCell id="fPkrauzJQWh0N8piWwbz-154" value="" style="endArrow=none;html=1;rounded=0;exitX=1;exitY=0.5;exitDx=0;exitDy=0;" edge="1" parent="1" source="fPkrauzJQWh0N8piWwbz-116">
          <mxGeometry relative="1" as="geometry">
            <mxPoint x="580" y="319.5" as="sourcePoint" />
            <mxPoint x="740" y="319.5" as="targetPoint" />
          </mxGeometry>
        </mxCell>
        <mxCell id="fPkrauzJQWh0N8piWwbz-155" value="" style="endArrow=none;html=1;rounded=0;exitX=1;exitY=0.5;exitDx=0;exitDy=0;" edge="1" parent="1" source="fPkrauzJQWh0N8piWwbz-116">
          <mxGeometry relative="1" as="geometry">
            <mxPoint x="580" y="369.5" as="sourcePoint" />
            <mxPoint x="740" y="369.5" as="targetPoint" />
          </mxGeometry>
        </mxCell>
        <mxCell id="fPkrauzJQWh0N8piWwbz-156" value="" style="endArrow=none;html=1;rounded=0;exitX=1;exitY=0.5;exitDx=0;exitDy=0;" edge="1" parent="1" source="fPkrauzJQWh0N8piWwbz-116">
          <mxGeometry relative="1" as="geometry">
            <mxPoint x="630" y="450" as="sourcePoint" />
            <mxPoint x="740" y="419.5" as="targetPoint" />
          </mxGeometry>
        </mxCell>
        <mxCell id="fPkrauzJQWh0N8piWwbz-157" value="" style="endArrow=none;html=1;rounded=0;exitX=1;exitY=0.5;exitDx=0;exitDy=0;" edge="1" parent="1" source="fPkrauzJQWh0N8piWwbz-116">
          <mxGeometry relative="1" as="geometry">
            <mxPoint x="640" y="460" as="sourcePoint" />
            <mxPoint x="740" y="469.5" as="targetPoint" />
          </mxGeometry>
        </mxCell>
        <mxCell id="fPkrauzJQWh0N8piWwbz-158" value="" style="endArrow=none;html=1;rounded=0;exitX=1;exitY=0.5;exitDx=0;exitDy=0;" edge="1" parent="1" source="fPkrauzJQWh0N8piWwbz-116">
          <mxGeometry relative="1" as="geometry">
            <mxPoint x="580" y="519.5" as="sourcePoint" />
            <mxPoint x="740" y="519.5" as="targetPoint" />
          </mxGeometry>
        </mxCell>
        <mxCell id="fPkrauzJQWh0N8piWwbz-159" value="" style="endArrow=none;html=1;rounded=0;exitX=1;exitY=0.5;exitDx=0;exitDy=0;" edge="1" parent="1" source="fPkrauzJQWh0N8piWwbz-116">
          <mxGeometry relative="1" as="geometry">
            <mxPoint x="580" y="569.5" as="sourcePoint" />
            <mxPoint x="740" y="569.5" as="targetPoint" />
          </mxGeometry>
        </mxCell>
        <mxCell id="fPkrauzJQWh0N8piWwbz-160" value="" style="endArrow=none;html=1;rounded=0;exitX=1;exitY=0.5;exitDx=0;exitDy=0;" edge="1" parent="1" source="fPkrauzJQWh0N8piWwbz-116">
          <mxGeometry relative="1" as="geometry">
            <mxPoint x="580" y="619.5" as="sourcePoint" />
            <mxPoint x="740" y="619.5" as="targetPoint" />
          </mxGeometry>
        </mxCell>
        <mxCell id="fPkrauzJQWh0N8piWwbz-161" value="EMPRESTIMO" style="shape=rhombus;perimeter=rhombusPerimeter;whiteSpace=wrap;html=1;align=center;" vertex="1" parent="1">
          <mxGeometry x="170" y="420" width="120" height="60" as="geometry" />
        </mxCell>
        <mxCell id="fPkrauzJQWh0N8piWwbz-163" value="" style="endArrow=none;html=1;rounded=0;exitX=0.5;exitY=1;exitDx=0;exitDy=0;entryX=0.5;entryY=0;entryDx=0;entryDy=0;" edge="1" parent="1" source="fPkrauzJQWh0N8piWwbz-104" target="fPkrauzJQWh0N8piWwbz-161">
          <mxGeometry relative="1" as="geometry">
            <mxPoint x="200" y="290" as="sourcePoint" />
            <mxPoint x="360" y="290" as="targetPoint" />
          </mxGeometry>
        </mxCell>
        <mxCell id="fPkrauzJQWh0N8piWwbz-164" value="" style="endArrow=none;html=1;rounded=0;entryX=0;entryY=0.5;entryDx=0;entryDy=0;" edge="1" parent="1" target="fPkrauzJQWh0N8piWwbz-116">
          <mxGeometry relative="1" as="geometry">
            <mxPoint x="290" y="450" as="sourcePoint" />
            <mxPoint x="450" y="450" as="targetPoint" />
            <Array as="points">
              <mxPoint x="370" y="450" />
            </Array>
          </mxGeometry>
        </mxCell>
        <mxCell id="fPkrauzJQWh0N8piWwbz-165" value="" style="endArrow=none;html=1;rounded=0;entryX=0;entryY=0.5;entryDx=0;entryDy=0;exitX=1;exitY=0.5;exitDx=0;exitDy=0;" edge="1" parent="1" source="fPkrauzJQWh0N8piWwbz-104" target="fPkrauzJQWh0N8piWwbz-108">
          <mxGeometry relative="1" as="geometry">
            <mxPoint x="510" y="230" as="sourcePoint" />
            <mxPoint x="500" y="340" as="targetPoint" />
          </mxGeometry>
        </mxCell>
        <mxCell id="fPkrauzJQWh0N8piWwbz-166" value="" style="endArrow=none;html=1;rounded=0;exitX=1;exitY=0.5;exitDx=0;exitDy=0;entryX=0;entryY=0.5;entryDx=0;entryDy=0;" edge="1" parent="1" source="fPkrauzJQWh0N8piWwbz-108" target="fPkrauzJQWh0N8piWwbz-105">
          <mxGeometry relative="1" as="geometry">
            <mxPoint x="340" y="340" as="sourcePoint" />
            <mxPoint x="500" y="340" as="targetPoint" />
          </mxGeometry>
        </mxCell>
      </root>
    </mxGraphModel>
  </diagram>
</mxfile>
